<svg width="19" height="19" viewBox="0 0 19 19" fill="none" xmlns="http://www.w3.org/2000/svg">
<g id="ep:back">
<path id="Vector" d="M4.15625 8.90625H16.0312C16.1887 8.90625 16.3397 8.96881 16.4511 9.08016C16.5624 9.19151 16.625 9.34253 16.625 9.5C16.625 9.65747 16.5624 9.8085 16.4511 9.91985C16.3397 10.0312 16.1887 10.0938 16.0312 10.0938H4.15625C3.99878 10.0938 3.84776 10.0312 3.73641 9.91985C3.62506 9.8085 3.5625 9.65747 3.5625 9.5C3.5625 9.34253 3.62506 9.19151 3.73641 9.08016C3.84776 8.96881 3.99878 8.90625 4.15625 8.90625Z" fill="#676767"/>
<path id="Vector_2" d="M4.40312 9.50002L9.32769 14.4234C9.43918 14.5349 9.50181 14.6861 9.50181 14.8438C9.50181 15.0014 9.43918 15.1527 9.32769 15.2641C9.2162 15.3756 9.06498 15.4383 8.90731 15.4383C8.74964 15.4383 8.59843 15.3756 8.48694 15.2641L3.14319 9.92039C3.08789 9.86524 3.04402 9.79972 3.01409 9.72758C2.98416 9.65545 2.96875 9.57812 2.96875 9.50002C2.96875 9.42192 2.98416 9.34459 3.01409 9.27245C3.04402 9.20032 3.08789 9.1348 3.14319 9.07964L8.48694 3.73589C8.59843 3.6244 8.74964 3.56177 8.90731 3.56177C9.06498 3.56177 9.2162 3.6244 9.32769 3.73589C9.43918 3.84738 9.50181 3.9986 9.50181 4.15627C9.50181 4.31394 9.43918 4.46515 9.32769 4.57664L4.40312 9.50002Z" fill="#676767"/>
</g>
</svg>
