<svg width="14" height="13" viewBox="0 0 14 13" fill="none" xmlns="http://www.w3.org/2000/svg">
<path id="Vector" d="M11.3216 1.66042H10.0798V1.0395C10.0798 0.874822 10.0143 0.716888 9.8979 0.600443C9.78145 0.483997 9.62352 0.418579 9.45884 0.418579C9.29416 0.418579 9.13622 0.483997 9.01978 0.600443C8.90333 0.716888 8.83792 0.874822 8.83792 1.0395V1.66042H5.11238V1.0395C5.11238 0.874822 5.04697 0.716888 4.93052 0.600443C4.81407 0.483997 4.65614 0.418579 4.49146 0.418579C4.32678 0.418579 4.16885 0.483997 4.0524 0.600443C3.93596 0.716888 3.87054 0.874822 3.87054 1.0395V1.66042H2.6287C2.13466 1.66042 1.66086 1.85668 1.31152 2.20601C0.962185 2.55535 0.76593 3.02915 0.76593 3.52319V10.9743C0.76593 11.4683 0.962185 11.9421 1.31152 12.2914C1.66086 12.6408 2.13466 12.837 2.6287 12.837H11.3216C11.8156 12.837 12.2894 12.6408 12.6388 12.2914C12.9881 11.9421 13.1844 11.4683 13.1844 10.9743V3.52319C13.1844 3.02915 12.9881 2.55535 12.6388 2.20601C12.2894 1.85668 11.8156 1.66042 11.3216 1.66042ZM11.9425 10.9743C11.9425 11.1389 11.8771 11.2969 11.7607 11.4133C11.6442 11.5298 11.4863 11.5952 11.3216 11.5952H2.6287C2.46402 11.5952 2.30608 11.5298 2.18964 11.4133C2.07319 11.2969 2.00777 11.1389 2.00777 10.9743V6.6278H11.9425V10.9743ZM11.9425 5.38595H2.00777V3.52319C2.00777 3.35851 2.07319 3.20058 2.18964 3.08413C2.30608 2.96769 2.46402 2.90227 2.6287 2.90227H3.87054V3.52319C3.87054 3.68787 3.93596 3.8458 4.0524 3.96225C4.16885 4.07869 4.32678 4.14411 4.49146 4.14411C4.65614 4.14411 4.81407 4.07869 4.93052 3.96225C5.04697 3.8458 5.11238 3.68787 5.11238 3.52319V2.90227H8.83792V3.52319C8.83792 3.68787 8.90333 3.8458 9.01978 3.96225C9.13622 4.07869 9.29416 4.14411 9.45884 4.14411C9.62352 4.14411 9.78145 4.07869 9.8979 3.96225C10.0143 3.8458 10.0798 3.68787 10.0798 3.52319V2.90227H11.3216C11.4863 2.90227 11.6442 2.96769 11.7607 3.08413C11.8771 3.20058 11.9425 3.35851 11.9425 3.52319V5.38595Z" fill="#545454"/>
</svg>
