<svg width="38" height="38" viewBox="0 0 38 38" fill="none" xmlns="http://www.w3.org/2000/svg">
<g id="Group 1000005081">
<circle id="Ellipse 15" cx="19" cy="19" r="19" fill="#3B44B1" fill-opacity="0.12"/>
<g id="Vector">
<path d="M19 23.5714L15.52 18.6571C14.9504 17.9846 14.5836 17.1641 14.4623 16.2911C14.341 15.4182 14.4701 14.5287 14.8348 13.7264C15.1995 12.924 15.7846 12.2418 16.522 11.7591C17.2594 11.2764 18.1188 11.0132 19 11C20.2216 11.0121 21.3886 11.5078 22.2454 12.3785C23.1022 13.2493 23.579 14.4241 23.5714 15.6457C23.5719 16.7114 23.2091 17.7454 22.5429 18.5771L19 23.5714ZM19 12.1429C18.0811 12.1534 17.2039 12.5282 16.561 13.185C15.9182 13.8417 15.5623 14.7268 15.5714 15.6457C15.5753 16.4845 15.877 17.2946 16.4229 17.9314L19 21.5829L21.6457 17.8571C22.1486 17.2294 22.4245 16.4501 22.4286 15.6457C22.4377 14.7268 22.0818 13.8417 21.439 13.185C20.7961 12.5282 19.9189 12.1534 19 12.1429Z" fill="#4431B8"/>
<path d="M19 16.1429C19.6312 16.1429 20.1429 15.6312 20.1429 15C20.1429 14.3688 19.6312 13.8571 19 13.8571C18.3688 13.8571 17.8571 14.3688 17.8571 15C17.8571 15.6312 18.3688 16.1429 19 16.1429Z" fill="#4431B8"/>
<path d="M25.8571 16.7143H24.7143V17.8571H25.8571V25.8571H12.1429V17.8571H13.2857V16.7143H12.1429C11.8398 16.7143 11.5491 16.8347 11.3347 17.049C11.1204 17.2633 11 17.554 11 17.8571V25.8571C11 26.1602 11.1204 26.4509 11.3347 26.6653C11.5491 26.8796 11.8398 27 12.1429 27H25.8571C26.1602 27 26.4509 26.8796 26.6653 26.6653C26.8796 26.4509 27 26.1602 27 25.8571V17.8571C27 17.554 26.8796 17.2633 26.6653 17.049C26.4509 16.8347 26.1602 16.7143 25.8571 16.7143Z" fill="#4431B8"/>
</g>
</g>
</svg>
