<svg width="134" height="27" viewBox="0 0 134 27" fill="none" xmlns="http://www.w3.org/2000/svg">
<g id="Group 1000005065">
<rect id="Rectangle 75" x="57" y="14" width="67" height="2" fill="#DFDFDF"/>
<g id="Group 1000004889">
<circle id="Ellipse 2873" cx="120.081" cy="13.0806" r="13.0806" fill="#DFDFDF"/>
<path id="Vector" d="M120.524 6.37923C120.36 6.20144 120.139 6.10156 119.907 6.10156C119.676 6.10156 119.455 6.20144 119.291 6.37923L113.495 12.6821C113.455 12.7261 113.422 12.7785 113.4 12.8361C113.378 12.8937 113.367 12.9554 113.367 13.0178C113.367 13.0801 113.378 13.1419 113.4 13.1995C113.422 13.2571 113.455 13.3094 113.495 13.3535C113.577 13.4425 113.688 13.4926 113.804 13.4926C113.861 13.4926 113.918 13.4803 113.971 13.4564C114.024 13.4326 114.072 13.3976 114.112 13.3535L114.676 12.7399V17.7596C114.676 18.1369 114.813 18.4987 115.059 18.7655C115.304 19.0323 115.637 19.1821 115.984 19.1821H123.831C124.178 19.1821 124.511 19.0323 124.756 18.7655C125.001 18.4987 125.139 18.1369 125.139 17.7596V12.7399L125.703 13.3535C125.784 13.4425 125.895 13.4926 126.011 13.4926C126.127 13.4926 126.238 13.4425 126.32 13.3535C126.402 13.2645 126.448 13.1437 126.448 13.0178C126.448 12.8919 126.402 12.7711 126.32 12.6821L124.267 10.4506V7.32759C124.267 7.20183 124.221 7.08122 124.14 6.9923C124.058 6.90337 123.947 6.85341 123.831 6.85341H122.959C122.844 6.85341 122.733 6.90337 122.651 6.9923C122.569 7.08122 122.523 7.20183 122.523 7.32759V8.55383L120.524 6.37923ZM124.267 11.7915V17.7596C124.267 17.8853 124.221 18.006 124.14 18.0949C124.058 18.1838 123.947 18.2338 123.831 18.2338H115.984C115.868 18.2338 115.757 18.1838 115.675 18.0949C115.594 18.006 115.548 17.8853 115.548 17.7596V11.7915L119.907 7.04972L124.267 11.7915Z" fill="#959595"/>
</g>
<g id="Group 1000004885">
<circle id="Ellipse 2872" cx="13.7993" cy="13.0806" r="13.0806" fill="#34A855"/>
<path id="Vector_2" d="M14.6829 7.55743C14.0917 7.31387 13.432 7.31387 12.8408 7.55743L8.76174 9.23907C8.56471 9.32021 8.39577 9.46022 8.27669 9.64109C8.15761 9.82195 8.09384 10.0354 8.0936 10.2539V15.8321C8.09356 16.0509 8.1572 16.2646 8.2763 16.4458C8.39539 16.6269 8.56448 16.7672 8.76174 16.8484L12.8408 18.5286C13.432 18.7721 14.0917 18.7721 14.6829 18.5286L18.7619 16.8484C18.9592 16.7672 19.1283 16.6269 19.2474 16.4458C19.3665 16.2646 19.4301 16.0509 19.4301 15.8321V10.2539C19.43 10.0353 19.3663 9.82167 19.2472 9.64066C19.1281 9.45965 18.9591 9.31952 18.7619 9.23834L14.6829 7.55743ZM13.1043 8.23592C13.5266 8.06197 13.9978 8.06197 14.4201 8.23592L18.1221 9.7607L16.5074 10.4246L12.1471 8.62988L13.1043 8.23592ZM11.1934 9.02166L15.5537 10.8171L13.7618 11.5562L9.40155 9.75997L11.1934 9.02166ZM14.1161 12.1953L18.7216 10.2984V15.8314C18.7217 15.9044 18.7006 15.9757 18.6609 16.0362C18.6212 16.0966 18.5649 16.1435 18.4991 16.1706L14.4194 17.8508C14.3202 17.8909 14.2188 17.9223 14.1161 17.9442V12.1953ZM13.4076 12.1953V17.9442C13.304 17.9224 13.2025 17.8912 13.1043 17.8508L9.02461 16.1706C8.95893 16.1435 8.90265 16.0968 8.863 16.0365C8.82334 15.9761 8.80214 15.905 8.80213 15.8321V10.2991L13.4076 12.196V12.1953Z" fill="white"/>
</g>
<rect id="Rectangle 74" x="11" y="14" width="50" height="2" fill="#34A855"/>
</g>
</svg>
