<svg width="38" height="38" viewBox="0 0 38 38" fill="none" xmlns="http://www.w3.org/2000/svg">
<g id="Group 1000005082">
<circle id="Ellipse 15" cx="19" cy="19" r="19" fill="#3B44B1" fill-opacity="0.12"/>
<path id="Vector" d="M15 23V18M19 23V15M23 23V21M25 11H13C12.4696 11 11.9609 11.2107 11.5858 11.5858C11.2107 11.9609 11 12.4696 11 13V25C11 25.5304 11.2107 26.0391 11.5858 26.4142C11.9609 26.7893 12.4696 27 13 27H25C25.5304 27 26.0391 26.7893 26.4142 26.4142C26.7893 26.0391 27 25.5304 27 25V13C27 12.4696 26.7893 11.9609 26.4142 11.5858C26.0391 11.2107 25.5304 11 25 11Z" stroke="#4431B8" stroke-width="1.09076" stroke-linecap="round" stroke-linejoin="round"/>
</g>
</svg>
