<svg width="35" height="35" viewBox="0 0 35 35" fill="none" xmlns="http://www.w3.org/2000/svg">
<g id="Group 5">
<ellipse id="Ellipse 2" cx="17.3572" cy="17.003" rx="17.3572" ry="17.003" fill="#F09D59" fill-opacity="0.12"/>
<g id="Group 4">
<path id="Vector" d="M13.1163 10.5989C13.2057 10.4923 13.2496 10.3549 13.2388 10.2163C13.228 10.0776 13.1632 9.94874 13.0584 9.8573C12.9536 9.76587 12.8171 9.71916 12.6783 9.72721C12.5395 9.73526 12.4093 9.79743 12.3158 9.90037L11.4005 10.9489C10.8814 11.5437 10.588 12.302 10.5716 13.0913L10.5312 15.0176C10.5297 15.0873 10.5421 15.1567 10.5674 15.2217C10.5928 15.2867 10.6307 15.3461 10.679 15.3965C10.7274 15.4468 10.7851 15.4872 10.849 15.5152C10.913 15.5433 10.9818 15.5584 11.0515 15.5599C11.1213 15.5613 11.1907 15.549 11.2557 15.5236C11.3207 15.4983 11.3801 15.4603 11.4305 15.412C11.4808 15.3637 11.5212 15.3059 11.5492 15.242C11.5773 15.1781 11.5924 15.1093 11.5939 15.0395L11.6335 13.1139C11.6449 12.5739 11.8458 12.055 12.201 11.6481L13.1163 10.5989Z" fill="#F09D59"/>
<path id="Vector_2" fill-rule="evenodd" clip-rule="evenodd" d="M12.9847 14.34C13.0322 13.582 13.3669 12.8707 13.9205 12.3508C14.4741 11.8309 15.205 11.5415 15.9644 11.5416H16.359V11.0102C16.359 10.8223 16.4337 10.6421 16.5665 10.5093C16.6994 10.3764 16.8796 10.3018 17.0675 10.3018C17.2554 10.3018 17.4356 10.3764 17.5685 10.5093C17.7013 10.6421 17.776 10.8223 17.776 11.0102V11.5416H18.1706C18.93 11.5415 19.6609 11.8309 20.2145 12.3508C20.7681 12.8707 21.1028 13.582 21.1503 14.34L21.3069 16.8437C21.3666 17.7983 21.6871 18.7182 22.2336 19.5032C22.3465 19.6655 22.4155 19.8542 22.4338 20.0511C22.4522 20.2479 22.4193 20.4461 22.3383 20.6265C22.2574 20.8069 22.1312 20.9632 21.9719 21.0803C21.8126 21.1975 21.6258 21.2714 21.4295 21.2949L19.0158 21.5839V22.3455C19.0158 22.8622 18.8105 23.3578 18.4451 23.7232C18.0798 24.0885 17.5842 24.2938 17.0675 24.2938C16.5508 24.2938 16.0552 24.0885 15.6899 23.7232C15.3245 23.3578 15.1192 22.8622 15.1192 22.3455V21.5839L12.7055 21.2942C12.5094 21.2706 12.3226 21.1967 12.1635 21.0796C12.0043 20.9625 11.8781 20.8063 11.7972 20.626C11.7163 20.4457 11.6833 20.2476 11.7016 20.0509C11.7199 19.8541 11.7887 19.6655 11.9014 19.5032C12.4479 18.7182 12.7684 17.7983 12.8281 16.8437L12.9847 14.3407V14.34ZM15.9644 12.6042C15.4753 12.6042 15.0045 12.7905 14.648 13.1254C14.2914 13.4602 14.0759 13.9184 14.0452 14.4066L13.8894 16.9102C13.8173 18.0586 13.4316 19.1653 12.7743 20.1096C12.7661 20.1214 12.7611 20.135 12.7598 20.1493C12.7584 20.1635 12.7608 20.1778 12.7666 20.1909C12.7725 20.2039 12.7816 20.2153 12.7931 20.2237C12.8046 20.2322 12.8181 20.2376 12.8323 20.2393L15.4798 20.5574C16.5347 20.6835 17.6003 20.6835 18.6552 20.5574L21.3027 20.2393C21.3169 20.2376 21.3304 20.2322 21.3419 20.2237C21.3534 20.2153 21.3625 20.2039 21.3684 20.1909C21.3742 20.1778 21.3766 20.1635 21.3752 20.1493C21.3739 20.135 21.3689 20.1214 21.3608 20.1096C20.7036 19.1652 20.3181 18.0586 20.2463 16.9102L20.0898 14.4066C20.0591 13.9184 19.8436 13.4602 19.487 13.1254C19.1305 12.7905 18.6597 12.6042 18.1706 12.6042H15.9644ZM17.0675 23.2311C16.5787 23.2311 16.1819 22.8344 16.1819 22.3455V21.8142H17.9531V22.3455C17.9531 22.8344 17.5563 23.2311 17.0675 23.2311Z" fill="#F09D59"/>
<path id="Vector_3" d="M21.0643 9.84625C20.9582 9.93889 20.8932 10.0699 20.8836 10.2105C20.874 10.351 20.9207 10.4896 21.0133 10.5958L21.9286 11.6443C22.2838 12.0515 22.4844 12.5706 22.4954 13.1108L22.5358 15.0357C22.5387 15.1766 22.5974 15.3106 22.6992 15.4082C22.8009 15.5058 22.9372 15.559 23.0781 15.5561C23.219 15.5531 23.353 15.4944 23.4506 15.3927C23.5482 15.291 23.6014 15.1547 23.5984 15.0137L23.5581 13.0881C23.5416 12.2989 23.2482 11.5406 22.7292 10.9458L21.8138 9.89726C21.7212 9.79112 21.5902 9.72612 21.4496 9.71656C21.3091 9.70699 21.1705 9.75364 21.0643 9.84625Z" fill="#F09D59"/>
</g>
<circle id="Ellipse 3" cx="30.1328" cy="5.5" r="2.5" fill="#FD3246"/>
</g>
</svg>
