<svg width="20" height="20" viewBox="0 0 20 20" fill="none" xmlns="http://www.w3.org/2000/svg">
<g id="mi:options-horizontal">
<path id="Vector" d="M9.9987 11.6666C10.4407 11.6666 10.8646 11.491 11.1772 11.1784C11.4898 10.8659 11.6654 10.4419 11.6654 9.99992C11.6654 9.55789 11.4898 9.13397 11.1772 8.82141C10.8646 8.50885 10.4407 8.33325 9.9987 8.33325C9.55667 8.33325 9.13275 8.50885 8.82019 8.82141C8.50763 9.13397 8.33203 9.55789 8.33203 9.99992C8.33203 10.4419 8.50763 10.8659 8.82019 11.1784C9.13275 11.491 9.55667 11.6666 9.9987 11.6666ZM4.9987 11.6666C5.44073 11.6666 5.86465 11.491 6.17721 11.1784C6.48977 10.8659 6.66536 10.4419 6.66536 9.99992C6.66536 9.55789 6.48977 9.13397 6.17721 8.82141C5.86465 8.50885 5.44073 8.33325 4.9987 8.33325C4.55667 8.33325 4.13275 8.50885 3.82019 8.82141C3.50763 9.13397 3.33203 9.55789 3.33203 9.99992C3.33203 10.4419 3.50763 10.8659 3.82019 11.1784C4.13275 11.491 4.55667 11.6666 4.9987 11.6666ZM14.9987 11.6666C15.4407 11.6666 15.8646 11.491 16.1772 11.1784C16.4898 10.8659 16.6654 10.4419 16.6654 9.99992C16.6654 9.55789 16.4898 9.13397 16.1772 8.82141C15.8646 8.50885 15.4407 8.33325 14.9987 8.33325C14.5567 8.33325 14.1327 8.50885 13.8202 8.82141C13.5076 9.13397 13.332 9.55789 13.332 9.99992C13.332 10.4419 13.5076 10.8659 13.8202 11.1784C14.1327 11.491 14.5567 11.6666 14.9987 11.6666Z" fill="#4431B8"/>
</g>
</svg>
